<svg width="32" height="32" viewBox="0 0 32 32" fill="none" xmlns="http://www.w3.org/2000/svg">
  <!-- Heart/Pulse Icon for Solana Pulse -->
  <path d="M16 28C16 28 6 18 6 12C6 8.68629 8.68629 6 12 6C14 6 15.5 7 16 8.5C16.5 7 18 6 20 6C23.3137 6 26 8.68629 26 12C26 18 16 28 16 28Z" fill="#06b6d4"/>
  
  <!-- Pulse Line -->
  <path d="M4 16H8L10 12L14 20L18 8L22 16H28" stroke="#f59e0b" stroke-width="2" stroke-linecap="round" stroke-linejoin="round" fill="none"/>
  
  <!-- Equality Dots -->
  <circle cx="6" cy="24" r="1" fill="#06b6d4"/>
  <circle cx="16" cy="24" r="1" fill="#06b6d4"/>
  <circle cx="26" cy="24" r="1" fill="#06b6d4"/>
</svg>